<svg width="16" height="17" viewBox="0 0 16 17" fill="none" xmlns="http://www.w3.org/2000/svg">
<path fill-rule="evenodd" clip-rule="evenodd" d="M14 0.367188H2C0.897 0.367188 0 1.26419 0 2.36719V14.3672C0 15.4702 0.897 16.3672 2 16.3672H8V10.8672H6V8.36719H8V6.36719C8 5.57154 8.31607 4.80848 8.87868 4.24587C9.44129 3.68326 10.2044 3.36719 11 3.36719H13V5.86719H12C11.448 5.86719 11 5.81519 11 6.36719V8.36719H13.5L12.5 10.8672H11V16.3672H14C15.103 16.3672 16 15.4702 16 14.3672V2.36719C16 1.26419 15.103 0.367188 14 0.367188Z" fill="white"/>
</svg>
