<svg width="16" height="17" viewBox="0 0 16 17" fill="none" xmlns="http://www.w3.org/2000/svg">
<path d="M8 1.81297C10.1205 1.81297 10.4096 1.81297 11.2771 1.81297C12.0482 1.81297 12.4337 2.00574 12.7229 2.10213C13.1084 2.2949 13.3976 2.39128 13.6867 2.68044C13.9759 2.9696 14.1687 3.25875 14.2651 3.6443C14.3614 3.93345 14.4578 4.319 14.5542 5.09008C14.5542 5.95755 14.5542 6.15032 14.5542 8.36719C14.5542 10.5841 14.5542 10.7768 14.5542 11.6443C14.5542 12.4154 14.3614 12.8009 14.2651 13.0901C14.0723 13.4756 13.9759 13.7648 13.6867 14.0539C13.3976 14.3431 13.1084 14.5359 12.7229 14.6322C12.4337 14.7286 12.0482 14.825 11.2771 14.9214C10.4096 14.9214 10.2169 14.9214 8 14.9214C5.78313 14.9214 5.59036 14.9214 4.72289 14.9214C3.95181 14.9214 3.56627 14.7286 3.27711 14.6322C2.89157 14.4395 2.60241 14.3431 2.31325 14.0539C2.0241 13.7648 1.83133 13.4756 1.73494 13.0901C1.63855 12.8009 1.54217 12.4154 1.44578 11.6443C1.44578 10.7768 1.44578 10.5841 1.44578 8.36719C1.44578 6.15032 1.44578 5.95755 1.44578 5.09008C1.44578 4.319 1.63855 3.93345 1.73494 3.6443C1.92771 3.25875 2.0241 2.9696 2.31325 2.68044C2.60241 2.39128 2.89157 2.19851 3.27711 2.10213C3.56627 2.00574 3.95181 1.90936 4.72289 1.81297C5.59036 1.81297 5.87952 1.81297 8 1.81297ZM8 0.367188C5.78313 0.367188 5.59036 0.367188 4.72289 0.367188C3.85542 0.367188 3.27711 0.559959 2.79518 0.75273C2.31325 0.945501 1.83133 1.23466 1.3494 1.71659C0.867471 2.19851 0.674699 2.58406 0.385543 3.16237C0.192772 3.6443 0.0963856 4.22261 0 5.09008C0 5.95755 0 6.24671 0 8.36719C0 10.5841 0 10.7768 0 11.6443C0 12.5118 0.192772 13.0901 0.385543 13.572C0.578314 14.0539 0.867471 14.5359 1.3494 15.0178C1.83133 15.4997 2.21687 15.6925 2.79518 15.9816C3.27711 16.1744 3.85542 16.2708 4.72289 16.3672C5.59036 16.3672 5.87952 16.3672 8 16.3672C10.1205 16.3672 10.4096 16.3672 11.2771 16.3672C12.1446 16.3672 12.7229 16.1744 13.2048 15.9816C13.6867 15.7889 14.1687 15.4997 14.6506 15.0178C15.1325 14.5359 15.3253 14.1503 15.6145 13.572C15.8072 13.0901 15.9036 12.5118 16 11.6443C16 10.7768 16 10.4877 16 8.36719C16 6.24671 16 5.95755 16 5.09008C16 4.22261 15.8072 3.6443 15.6145 3.16237C15.4217 2.68044 15.1325 2.19851 14.6506 1.71659C14.1687 1.23466 13.7831 1.04189 13.2048 0.75273C12.7229 0.559959 12.1446 0.463573 11.2771 0.367188C10.4096 0.367188 10.2169 0.367188 8 0.367188Z" fill="white"/>
<path d="M8 4.22261C5.68675 4.22261 3.85542 6.05394 3.85542 8.36719C3.85542 10.6804 5.68675 12.5118 8 12.5118C10.3133 12.5118 12.1446 10.6804 12.1446 8.36719C12.1446 6.05394 10.3133 4.22261 8 4.22261ZM8 11.066C6.55422 11.066 5.30121 9.90936 5.30121 8.36719C5.30121 6.92141 6.45783 5.66839 8 5.66839C9.44578 5.66839 10.6988 6.82502 10.6988 8.36719C10.6988 9.81297 9.44578 11.066 8 11.066Z" fill="white"/>
<path d="M12.241 5.09008C12.7733 5.09008 13.2048 4.65855 13.2048 4.12622C13.2048 3.5939 12.7733 3.16237 12.241 3.16237C11.7086 3.16237 11.2771 3.5939 11.2771 4.12622C11.2771 4.65855 11.7086 5.09008 12.241 5.09008Z" fill="white"/>
</svg>
