<svg width="68" height="68" viewBox="0 0 68 68" fill="none" xmlns="http://www.w3.org/2000/svg">
<g filter="url(#filter0_b_4471_13828)">
<rect x="1.25" y="1.25" width="65.5" height="65.5" rx="12.75" stroke="url(#paint0_linear_4471_13828)" stroke-opacity="0.2" stroke-width="1.5" stroke-linecap="round" stroke-linejoin="round"/>
</g>
<path fill-rule="evenodd" clip-rule="evenodd" d="M40.3402 25.4182C43.0869 25.4182 44.9802 26.0449 46.1135 27.2982C47.3669 28.6849 47.3935 30.5249 47.2869 31.8716C47.2805 31.9159 47.2772 31.9542 47.274 31.9908C47.2705 32.0312 47.2672 32.0696 47.2602 32.1116L47.1935 32.7382L47.1643 33.001C47.149 33.1395 47.0766 33.2655 46.9638 33.3473C46.448 33.7217 45.8767 34.1074 45.3269 34.4182C45.3047 34.4316 45.2839 34.4449 45.2632 34.4582C45.2217 34.4849 45.1802 34.5116 45.1269 34.5382C42.7535 35.9249 40.1269 36.8716 37.4069 37.3116C37.3135 38.6049 36.7402 40.0582 33.8202 40.0582C30.9002 40.0582 30.3535 38.5916 30.2335 37.3382C27.6869 36.9249 25.1802 36.0849 22.9002 34.8316C22.7002 34.7249 22.5002 34.6182 22.3135 34.4982C21.9695 34.3071 21.3788 33.9242 21.0719 33.7226C20.9461 33.64 20.8653 33.5046 20.851 33.3548L20.7402 32.1916L20.7269 32.0982C20.5935 30.7516 20.5535 28.7782 21.8735 27.3116C23.0069 26.0582 24.8869 25.4316 27.6469 25.4316H27.9669V25.3649C27.9669 23.1382 27.9669 20.3516 32.9802 20.3516H35.0069C40.0202 20.3516 40.0202 23.1249 40.0202 25.3649V25.4182H40.3402ZM33.8069 38.0582C35.4469 38.0582 35.4469 37.8449 35.4469 36.4316V34.7649H32.1669V36.4449C32.1669 37.8049 32.1669 38.0582 33.8069 38.0582ZM29.8735 25.3649V25.4182V25.4316H38.1135V25.3649C38.1135 23.1116 38.1135 22.2582 35.0069 22.2582H32.9802C29.8735 22.2582 29.8735 23.0982 29.8735 25.3649ZM46.815 36.6666C46.8504 36.2766 46.4452 35.9957 46.0922 36.1652C44.5732 36.8943 41.2604 38.4301 39.3208 38.9205C39.156 38.9622 39.0215 39.0799 38.9525 39.2353C38.1587 41.0226 36.3651 42.0094 33.816 42.0094C31.2415 42.0094 29.4711 41.0591 28.6794 39.2751C28.6105 39.1198 28.4765 39.0022 28.3118 38.9606C26.483 38.4996 23.3601 37.1217 21.9024 36.4566C21.5503 36.2959 21.1536 36.5761 21.1887 36.9615L21.6694 42.2494C21.9494 44.9027 23.0427 47.6227 28.9094 47.6227H39.0694C44.936 47.6227 46.0294 44.9027 46.3094 42.236L46.815 36.6666Z" fill="url(#paint1_linear_4471_13828)"/>
<defs>
<filter id="filter0_b_4471_13828" x="-23.5" y="-23.5" width="115" height="115" filterUnits="userSpaceOnUse" color-interpolation-filters="sRGB">
<feFlood flood-opacity="0" result="BackgroundImageFix"/>
<feGaussianBlur in="BackgroundImageFix" stdDeviation="12"/>
<feComposite in2="SourceAlpha" operator="in" result="effect1_backgroundBlur_4471_13828"/>
<feBlend mode="normal" in="SourceGraphic" in2="effect1_backgroundBlur_4471_13828" result="shape"/>
</filter>
<linearGradient id="paint0_linear_4471_13828" x1="66" y1="2" x2="1.99999" y2="66" gradientUnits="userSpaceOnUse">
<stop stop-color="#F4789E"/>
<stop offset="1" stop-color="#F4789E" stop-opacity="0.32"/>
</linearGradient>
<linearGradient id="paint1_linear_4471_13828" x1="45.436" y1="25.2762" x2="15.7354" y2="26.2229" gradientUnits="userSpaceOnUse">
<stop stop-color="#F4789E"/>
<stop offset="1" stop-color="#F4789E" stop-opacity="0.2"/>
</linearGradient>
</defs>
</svg>
