<svg width="22" height="17" viewBox="0 0 22 17" fill="none" xmlns="http://www.w3.org/2000/svg">
<path d="M21.45 2.79576C21.175 1.79576 20.4875 1.08147 19.525 0.795759C17.875 0.367188 10.8625 0.367188 10.8625 0.367188C10.8625 0.367188 3.98751 0.367188 2.20001 0.795759C1.23751 1.08147 0.549996 1.79576 0.274996 2.79576C-4.20026e-06 4.6529 0 8.36719 0 8.36719C0 8.36719 4.17978e-06 12.0815 0.412504 13.9386C0.687504 14.9386 1.375 15.6529 2.3375 15.9386C3.9875 16.3672 11 16.3672 11 16.3672C11 16.3672 17.875 16.3672 19.6625 15.9386C20.625 15.6529 21.3125 14.9386 21.5875 13.9386C22 12.0815 22 8.36719 22 8.36719C22 8.36719 22 4.6529 21.45 2.79576ZM8.79999 11.7958V4.93862L14.575 8.36719L8.79999 11.7958Z" fill="white"/>
</svg>
